<?xml version="1.0" encoding="utf-8"?>
<!-- Generator: Adobe Illustrator 30.0.0, SVG Export Plug-In . SVG Version: 9.03 Build 0)  -->
<svg version="1.1" id="图层_1" xmlns="http://www.w3.org/2000/svg" xmlns:xlink="http://www.w3.org/1999/xlink" x="0px" y="0px"
	 viewBox="0 0 400 400" style="enable-background:new 0 0 400 400;" xml:space="preserve">
<style type="text/css">
	.st0{fill:#E7000B;}
	.st1{fill:#FFFFFF;}
</style>
<path class="st0" d="M290,400H110C49.25,400,0,350.75,0,290V110C0,49.25,49.25,0,110,0h180c60.75,0,110,49.25,110,110v180
	C400,350.75,350.75,400,290,400z"/>
<g>
	<path class="st1" d="M83.77,166.79H49.71v23.69h31.3v17.63h-31.3v37.49H27.98v-96.51h55.79V166.79z"/>
	<path class="st1" d="M130.41,247.29c-11.49,0-20.52-3.22-27.09-9.66c-6.57-6.44-9.86-15.18-9.86-26.21
		c0-11.4,3.41-20.31,10.23-26.75c6.82-6.44,16.04-9.66,27.66-9.66c11.44,0,20.41,3.22,26.92,9.66c6.51,6.44,9.76,14.95,9.76,25.54
		c0,11.44-3.35,20.48-10.06,27.12C151.26,243.97,142.08,247.29,130.41,247.29z M130.95,191.29c-5.03,0-8.93,1.73-11.71,5.18
		c-2.78,3.46-4.17,8.35-4.17,14.67c0,13.24,5.34,19.85,16.02,19.85c10.18,0,15.28-6.8,15.28-20.39
		C146.36,197.73,141.22,191.29,130.95,191.29z"/>
	<path class="st1" d="M234.05,243.11c-4.8,2.78-11.73,4.17-20.8,4.17c-10.59,0-19.16-3.21-25.71-9.62
		c-6.55-6.42-9.83-14.69-9.83-24.83c0-11.71,3.51-20.94,10.53-27.69c7.02-6.75,16.41-10.13,28.17-10.13c8.12,0,14,1.08,17.63,3.23
		v18.04c-4.44-3.32-9.4-4.98-14.87-4.98c-6.1,0-10.94,1.78-14.5,5.35c-3.57,3.57-5.35,8.49-5.35,14.77c0,6.1,1.7,10.89,5.12,14.37
		c3.41,3.48,8.1,5.22,14.07,5.22c5.29,0,10.48-1.66,15.55-4.98V243.11z"/>
	<path class="st1" d="M313.47,245.6h-21.2v-10.5h-0.34c-5.25,8.12-12.27,12.18-21.07,12.18c-15.97,0-23.96-9.67-23.96-29.01v-41.59
		h21.2v39.71c0,9.74,3.86,14.6,11.58,14.6c3.81,0,6.87-1.33,9.15-4c2.29-2.67,3.43-6.29,3.43-10.87v-39.44h21.2V245.6z"/>
	<path class="st1" d="M326.87,243.79v-17.23c3.5,2.11,6.99,3.68,10.46,4.71c3.48,1.03,6.76,1.55,9.86,1.55
		c3.77,0,6.74-0.52,8.92-1.55c2.18-1.03,3.26-2.6,3.26-4.71c0-1.35-0.49-2.47-1.48-3.36s-2.25-1.68-3.8-2.36
		c-1.55-0.67-3.24-1.28-5.08-1.82c-1.84-0.54-3.61-1.14-5.32-1.82c-2.74-1.03-5.15-2.14-7.24-3.33c-2.09-1.19-3.84-2.57-5.25-4.14
		c-1.41-1.57-2.49-3.39-3.23-5.45c-0.74-2.06-1.11-4.51-1.11-7.34c0-3.86,0.84-7.18,2.52-9.96c1.68-2.78,3.93-5.06,6.73-6.83
		c2.8-1.77,6.01-3.07,9.62-3.9c3.61-0.83,7.37-1.25,11.27-1.25c3.05,0,6.15,0.24,9.29,0.71c3.14,0.47,6.24,1.16,9.29,2.05v16.42
		c-2.69-1.57-5.58-2.75-8.65-3.53c-3.07-0.78-6.09-1.18-9.05-1.18c-1.39,0-2.7,0.12-3.94,0.37c-1.23,0.25-2.32,0.61-3.26,1.08
		s-1.68,1.08-2.22,1.82s-0.81,1.58-0.81,2.52c0,1.26,0.4,2.33,1.21,3.23c0.81,0.9,1.86,1.67,3.16,2.32c1.3,0.65,2.75,1.24,4.34,1.75
		c1.59,0.52,3.17,1.04,4.75,1.58c2.83,0.99,5.38,2.06,7.67,3.23c2.29,1.17,4.25,2.54,5.89,4.11c1.64,1.57,2.89,3.41,3.77,5.52
		c0.88,2.11,1.31,4.62,1.31,7.54c0,4.08-0.89,7.57-2.66,10.47c-1.77,2.89-4.13,5.25-7.07,7.07c-2.94,1.82-6.33,3.14-10.16,3.97
		c-3.84,0.83-7.82,1.25-11.95,1.25C340.35,247.29,333.33,246.12,326.87,243.79z"/>
</g>
</svg>
